<?xml version="1.0" encoding="iso-8859-1"?>
<!-- Uploaded to: SVG Repo, www.svgrepo.com, Generator: SVG Repo Mixer Tools -->
<svg height="800px" width="800px" version="1.1" id="Layer_1" xmlns="http://www.w3.org/2000/svg" xmlns:xlink="http://www.w3.org/1999/xlink" 
	 viewBox="0 0 512 512" xml:space="preserve">
<circle style="fill:#EDEDEE;" cx="256" cy="256" r="256"/>
<circle style="fill:#DCDBDE;" cx="256" cy="256" r="194.207"/>
<g>
	<path style="fill:#8CE16E;" d="M351.596,379.588c-3.636,10.285-13.444,17.653-24.975,17.653c0,14.626-11.857,26.483-26.483,26.483
		c-4.374,0-8.439-1.162-12.075-3.04c-5.567,12.185-17.791,20.695-32.063,20.695s-26.496-8.51-32.063-20.695
		c-3.636,1.878-7.7,3.04-12.075,3.04c-14.626,0-26.483-11.857-26.483-26.483c-11.541,0-21.357-7.382-24.985-17.682l24.985-44.111
		h141.241L351.596,379.588z"/>
	<path style="fill:#8CE16E;" d="M439.229,261.098c11.69-5.754,19.806-17.67,19.806-31.581c0-14.273-8.509-26.496-20.695-32.063
		c1.879-3.636,3.04-7.7,3.04-12.075c0-14.626-11.857-26.483-26.483-26.483c-3.174,0-6.176,0.65-8.996,1.674
		c0.036-0.564,0.169-1.1,0.169-1.674c0-14.626-11.857-26.483-26.483-26.483s-26.483,11.857-26.483,26.483l17.654,180.654
		c5.194,3.006,11.224,4.725,17.656,4.725c19.501,0,35.31-15.809,35.31-35.31c14.626,0,26.483-11.857,26.483-26.483
		C450.207,273.666,445.854,265.912,439.229,261.098z"/>
</g>
<g>
	<path style="fill:#963C2D;" d="M132.414,388.414v26.483c0,3.457-3.742,8.871-6.241,11.414c-3.448,3.448-3.448,9.035,0,12.483
		c1.725,1.725,3.982,2.586,6.241,2.586c2.259,0,4.518-0.862,6.241-2.586c1.173-1.164,11.414-11.759,11.414-23.897v-26.483H132.414z"
		/>
	<path style="fill:#963C2D;" d="M385.854,426.337c-2.526-2.569-6.268-7.982-6.268-11.439v-26.483h-17.655v26.483
		c0,12.138,10.241,22.733,11.414,23.896c1.716,1.725,3.966,2.578,6.225,2.578c2.25,0,4.5-0.853,6.225-2.569
		C389.241,435.38,389.259,429.802,385.854,426.337z"/>
</g>
<path style="fill:#8CE16E;" d="M132.415,132.414c-14.626,0-26.483,11.857-26.483,26.483c0,0.574,0.132,1.109,0.169,1.674
	c-2.82-1.024-5.822-1.674-8.996-1.674c-14.626,0-26.483,11.857-26.483,26.483c0,4.374,1.162,8.439,3.04,12.075
	c-12.186,5.567-20.695,17.791-20.695,32.063c0,13.911,8.116,25.825,19.807,31.581c-6.625,4.813-10.979,12.568-10.979,21.385
	c0,14.626,11.857,26.483,26.483,26.483c0,19.501,15.809,35.31,35.31,35.31c6.432,0,12.462-1.72,17.656-4.725l17.654-180.654
	C158.898,144.27,147.041,132.414,132.415,132.414z"/>
<g>
	<path style="fill:#7DC86E;" d="M150.069,247.172h-44.138c-4.879,0-8.828-3.948-8.828-8.828c0-4.879,3.948-8.828,8.828-8.828h44.138
		c4.879,0,8.828,3.948,8.828,8.828C158.897,243.224,154.948,247.172,150.069,247.172z"/>
	<path style="fill:#7DC86E;" d="M158.905,220.69c-0.707,0-1.431-0.086-2.146-0.267l-35.31-8.828
		c-4.733-1.181-7.612-5.974-6.422-10.698c1.181-4.742,5.956-7.638,10.698-6.422l35.31,8.828c4.733,1.181,7.612,5.974,6.422,10.698
		C166.457,218.017,162.862,220.69,158.905,220.69z"/>
	<path style="fill:#7DC86E;" d="M353.096,220.69c-3.957,0-7.552-2.673-8.552-6.69c-1.19-4.724,1.689-9.517,6.422-10.698l35.31-8.828
		c4.707-1.207,9.517,1.689,10.698,6.422c1.19,4.724-1.689,9.517-6.422,10.698l-35.31,8.828
		C354.526,220.604,353.802,220.69,353.096,220.69z"/>
	<path style="fill:#7DC86E;" d="M123.577,282.483c-3.957,0-7.552-2.673-8.552-6.69c-1.19-4.724,1.689-9.517,6.422-10.698l31.982-8
		c4.698-1.207,9.517,1.681,10.698,6.422c1.19,4.724-1.689,9.517-6.422,10.698l-31.982,8
		C125.009,282.397,124.285,282.483,123.577,282.483z"/>
	<path style="fill:#7DC86E;" d="M406.069,247.172h-44.138c-4.879,0-8.828-3.948-8.828-8.828c0-4.879,3.948-8.828,8.828-8.828h44.138
		c4.879,0,8.828,3.948,8.828,8.828C414.897,243.224,410.948,247.172,406.069,247.172z"/>
	<path style="fill:#7DC86E;" d="M388.423,282.483c-0.707,0-1.431-0.086-2.146-0.267l-31.982-8
		c-4.733-1.181-7.612-5.974-6.422-10.698c1.181-4.742,5.965-7.638,10.698-6.422l31.982,8c4.733,1.181,7.612,5.974,6.422,10.698
		C395.975,279.81,392.38,282.483,388.423,282.483z"/>
	<path style="fill:#7DC86E;" d="M293.379,379.07c-3.957,0-7.552-2.673-8.552-6.69l-4.156-16.621
		c-1.19-4.724,1.689-9.517,6.422-10.698c4.724-1.19,9.517,1.681,10.698,6.422l4.156,16.621c1.19,4.724-1.689,9.517-6.422,10.698
		C294.81,378.983,294.087,379.07,293.379,379.07z"/>
	<path style="fill:#7DC86E;" d="M256,406.069c-4.879,0-8.828-3.948-8.828-8.828v-35.31c0-4.879,3.948-8.828,8.828-8.828
		c4.879,0,8.828,3.948,8.828,8.828v35.31C264.828,402.121,260.879,406.069,256,406.069z"/>
	<path style="fill:#7DC86E;" d="M218.595,379.061c-0.698,0-1.414-0.077-2.121-0.258c-4.733-1.164-7.629-5.949-6.457-10.681
		l4.647-18.862c1.173-4.733,5.983-7.663,10.681-6.457c4.733,1.164,7.629,5.949,6.457,10.681l-4.647,18.862
		C226.164,376.371,222.561,379.061,218.595,379.061z"/>
</g>
<path style="fill:#B4563C;" d="M369.828,274.121c-4.242-8.474-7.897-15.793-7.897-26.948V141.241
	c0-43.81-35.638-79.448-79.448-79.448h-52.966c-43.81,0-79.448,35.638-79.448,79.448v105.931c0,11.155-3.656,18.474-7.896,26.948
	c-4.578,9.146-9.759,19.518-9.759,34.845v79.448c0,4.879,3.948,8.828,8.828,8.828c17.483,0,28.276-13.483,37.793-25.379
	c8.052-10.069,15-18.759,24-18.759c12.207,0,19.715,4.353,27.672,8.974c7.371,4.267,14.983,8.681,25.293,8.681
	s17.922-4.414,25.293-8.681c7.957-4.62,15.466-8.974,27.672-8.974c9,0,15.948,8.69,24,18.759
	c9.517,11.896,20.31,25.379,37.793,25.379c4.879,0,8.828-3.948,8.828-8.828v-79.448
	C379.586,293.639,374.406,283.267,369.828,274.121z"/>
<g>
	<path style="fill:#A54A34;" d="M364.524,262.236c1.423,4.055,3.283,7.847,5.304,11.885c4.577,9.146,9.758,19.518,9.758,34.845
		v79.448c0,4.974-4.142,8.868-9.117,8.826c-17.313-0.148-28.04-13.547-37.504-25.378c-8.052-10.069-15-18.759-24-18.759v-20.684
		c0-9.365,3.72-18.346,10.343-24.968L364.524,262.236z"/>
	<path style="fill:#A54A34;" d="M194.207,247.172V141.241c0-43.81,35.638-79.448,79.448-79.448h-44.138
		c-43.879,0-79.448,35.571-79.448,79.448v105.931c0,5.838-1.031,10.611-2.593,15.062l0,0c-1.423,4.055-3.283,7.847-5.304,11.885
		c-4.577,9.148-9.758,19.519-9.758,34.846v79.448c0,4.974,4.141,8.868,9.117,8.825c17.313-0.147,28.04-13.547,37.504-25.378
		c8.052-10.069,15-18.759,24-18.759v-20.684c0-9.365-3.72-18.346-10.343-24.968l-10.296-10.296
		c-2.298-2.298-3.258-5.717-2.219-8.797c1.779-5.272,3.982-9.939,6.134-14.237C190.552,265.646,194.207,258.328,194.207,247.172z"/>
	<circle style="fill:#A54A34;" cx="256" cy="335.448" r="17.655"/>
</g>
</svg>