<?xml version="1.0" encoding="utf-8"?>
<!DOCTYPE svg PUBLIC "-//W3C//DTD SVG 1.1//EN" "http://www.w3.org/Graphics/SVG/1.1/DTD/svg11.dtd">
<svg version="1.1" id="Capa_1" xmlns="http://www.w3.org/2000/svg" xmlns:xlink="http://www.w3.org/1999/xlink" x="0px" y="0px"
width="1080px" height="2156px" viewBox="250 800 500 1000" 
xml:space="preserve">
<defs></defs><path layer="1" fill="#FFFFFF" fill-opacity="0.0" stroke="#000000" stroke-width="5.0" stroke-opacity="1.0" stroke-miterlimit="10" d="M334.00006,1598.0546C334.00006,1598.0546,334.00006,1598.0546,334.00006,1598.0546C334.00006,1598.0546,334.00006,1598.0546,334.00006,1598.0546C334.00006,1598.0546,331.00006,1554.5608,333.00006,881.5608C631.00006,879.5608,653.04626,877.5608,653.04626,877.5608C653.04626,877.5608,656.0463,1040.0608,656.0463,1040.0608" stroke-linecap="round"/>
<path layer="1" fill="#FFFFFF" fill-opacity="0.0" stroke="#000000" stroke-width="5.0" stroke-opacity="1.0" stroke-miterlimit="10" d="M469.04648,879.9956C330.80704,1026.4956,331.807,1065.6305,331.807,1065.6305" stroke-linecap="round"/>
<path layer="1" fill="#FFFFFF" fill-opacity="0.0" stroke="#000000" stroke-width="5.0" stroke-opacity="1.0" stroke-miterlimit="10" d="M640.90674,978.16003C676.9066,978.16003,676.9066,978.16003,676.9066,978.16003" stroke-linecap="round"/>
<path layer="1" fill="#FFFFFF" fill-opacity="0.0" stroke="#000000" stroke-width="5.0" stroke-opacity="1.0" stroke-miterlimit="10" d="M642.3347,985.04846C675.1073,984.7217,675.1073,984.7217,675.1073,984.7217" stroke-linecap="round"/>
<path layer="1" fill="#FFFFFF" fill-opacity="0.0" stroke="#000000" stroke-width="5.0" stroke-opacity="1.0" stroke-miterlimit="10" d="M676.98175,993.0344C642.5483,993.0476,642.5622,992.887,642.5622,992.887" stroke-linecap="round"/>
<path layer="1" fill="#FFFFFF" fill-opacity="0.0" stroke="#000000" stroke-width="5.0" stroke-opacity="1.0" stroke-miterlimit="10" d="M181.97234,1595.9094C533.3519,1597.8854,533.3519,1597.8854,533.3519,1597.8854" stroke-linecap="round"/>
</svg>